# Exported from ProBuilder
# http://www.procore3d.com/probuilder
# 3/7/2019 4:01:08 PM

mtllib ./4x4.mtl
o 4x4

g 4x4
v 0 -2 0
v 0 -2 -4
v 4 -2 -4
v 4 -2 0
v 4 0 0
v 0 0 -4
v 0 0 0
v 4 0 -4
v 0 -2 -4
v 4 -2 -4
v 0 0 -4
v 4 0 -4
v 4 -2 -4
v 4 -2 0
v 4 0 -4
v 4 0 0
v 0 -2 0
v 0 -2 -4
v 0 0 0
v 0 0 -4
v 4 -2 0
v 0 -2 0
v 4 0 0
v 0 0 0

vn 0 -1 0
vn 0 -1 0
vn 0 -1 0
vn 0 -1 0
vn 0 1 0
vn 0 1 0
vn 0 1 0
vn 0 1 0
vn 0 0 -1
vn 0 0 -1
vn 0 0 -1
vn 0 0 -1
vn 1 0 0
vn 1 0 0
vn 1 0 0
vn 1 0 0
vn -1 0 0
vn -1 0 0
vn -1 0 0
vn -1 0 0
vn 0 0 1
vn 0 0 1
vn 0 0 1
vn 0 0 1

vt 0 0
vt 0 -4
vt 4 -4
vt 4 0
vt -4 0
vt 0 -4
vt 0 0
vt -4 -4
vt 0 0
vt -4 0
vt 0 2
vt -4 2
vt 4 0
vt 0 0
vt 4 2
vt 0 2
vt 0 0
vt -4 0
vt 0 2
vt -4 2
vt 4 0
vt 0 0
vt 4 2
vt 0 2

g 4x4
usemtl Floor_Test
f 3/3/3 4/4/4 1/1/1 2/2/2
f 7/7/7 5/5/5 8/8/8 6/6/6
f 11/11/11 12/12/12 10/10/10 9/9/9
f 15/15/15 16/16/16 14/14/14 13/13/13
f 19/19/19 20/20/20 18/18/18 17/17/17
f 23/23/23 24/24/24 22/22/22 21/21/21

